<svg clip-rule="evenodd" fill-rule="evenodd" stroke-linejoin="round" stroke-miterlimit="1.41421" viewBox="0 0 496 108" xmlns="http://www.w3.org/2000/svg"><g fill="#222"><ellipse cx="437.588" cy="54.168" rx="37.931" ry="39.105"/><ellipse cx="35.211" cy="33.2447" rx="26.275" ry="26.044"/><path d="m806.872 150.247h69.926v83.679h-69.926z" transform="matrix(.968438 0 0 1 -555.738 -137.9188)"/><path d="m716.85 150.729 11.093 25.361h-22.185z" transform="matrix(2.25616 0 0 2.14693 -1466.14 -306.192)"/><g fill-rule="nonzero" transform="translate(-264.312 -174.5737)"><path d="m293.742 241.822v38.808h-24.336v-104.904h34.128c7.584 0 14.052.78 19.404 2.34s9.72 3.732 13.104 6.516 5.844 6.072 7.38 9.864 2.304 7.92 2.304 12.384c0 3.408-.456 6.624-1.368 9.648s-2.268 5.82-4.068 8.388-4.008 4.86-6.624 6.876-5.628 3.672-9.036 4.968c1.632.816 3.156 1.824 4.572 3.024s2.652 2.664 3.708 4.392l22.32 36.504h-22.032c-4.08 0-7.008-1.536-8.784-4.608l-17.424-30.456c-.768-1.344-1.668-2.304-2.7-2.88s-2.484-.864-4.356-.864zm0-16.776h9.792c3.312 0 6.132-.42 8.46-1.26s4.236-2.004 5.724-3.492 2.568-3.228 3.24-5.22 1.008-4.14 1.008-6.444c0-4.608-1.5-8.208-4.5-10.8s-7.644-3.888-13.932-3.888h-9.792z"/><path d="m469.998 280.63h-18.864c-2.112 0-3.852-.492-5.22-1.476s-2.316-2.244-2.844-3.78l-6.192-18.288h-39.888l-6.192 18.288c-.48 1.344-1.416 2.556-2.808 3.636s-3.096 1.62-5.112 1.62h-19.008l40.608-104.904h24.912zm-67.392-40.104h28.656l-9.648-28.728c-.624-1.824-1.356-3.972-2.196-6.444s-1.668-5.148-2.484-8.028c-.768 2.928-1.56 5.64-2.376 8.136s-1.584 4.656-2.304 6.48z"/><path d="m580.878 228.142c0 7.584-1.308 14.58-3.924 20.988s-6.3 11.952-11.052 16.632-10.476 8.328-17.172 10.944-14.124 3.924-22.284 3.924h-40.752v-104.904h40.752c8.16 0 15.588 1.32 22.284 3.96s12.42 6.288 17.172 10.944 8.436 10.188 11.052 16.596 3.924 13.38 3.924 20.916zm-24.912 0c0-5.184-.672-9.864-2.016-14.04s-3.276-7.716-5.796-10.62-5.604-5.136-9.252-6.696-7.8-2.34-12.456-2.34h-16.272v67.464h16.272c4.656 0 8.808-.78 12.456-2.34s6.732-3.792 9.252-6.696 4.452-6.444 5.796-10.62 2.016-8.88 2.016-14.112z"/><path d="m601.902 175.726h24.48v104.904h-24.48z"/><path d="m756.558 228.142c0 7.584-1.308 14.64-3.924 21.168s-6.3 12.204-11.052 17.028-10.476 8.604-17.172 11.34-14.124 4.104-22.284 4.104-15.6-1.368-22.32-4.104-12.468-6.516-17.244-11.34-8.472-10.5-11.088-17.028-3.924-13.584-3.924-21.168 1.308-14.64 3.924-21.168 6.312-12.192 11.088-16.992 10.524-8.568 17.244-11.304 14.16-4.104 22.32-4.104 15.588 1.38 22.284 4.14 12.42 6.54 17.172 11.34 8.436 10.464 11.052 16.992 3.924 13.56 3.924 21.096zm-24.912 0c0-5.184-.672-9.852-2.016-14.004s-3.276-7.668-5.796-10.548-5.604-5.088-9.252-6.624-7.8-2.304-12.456-2.304c-4.704 0-8.892.768-12.564 2.304s-6.768 3.744-9.288 6.624-4.452 6.396-5.796 10.548-2.016 8.82-2.016 14.004c0 5.232.672 9.924 2.016 14.076s3.276 7.668 5.796 10.548 5.616 5.076 9.288 6.588 7.86 2.268 12.564 2.268c4.656 0 8.808-.756 12.456-2.268s6.732-3.708 9.252-6.588 4.452-6.396 5.796-10.548 2.016-8.844 2.016-14.076z"/></g></g><path d="m120.661 73.737h516.561v45.448h-516.561z" fill="#a29bfe" transform="matrix(.957086 .0201171 -.0153054 .628662 -113.659 -14.78)"/></svg>