<?xml version="1.0" standalone="no"?>
<!DOCTYPE svg PUBLIC "-//W3C//DTD SVG 20010904//EN"
 "http://www.w3.org/TR/2001/REC-SVG-20010904/DTD/svg10.dtd">
<svg version="1.0" xmlns="http://www.w3.org/2000/svg"
 width="512.000000pt" height="512.000000pt" viewBox="0 0 512.000000 512.000000"
 preserveAspectRatio="xMidYMid meet">
<metadata>
Created by potrace 1.11, written by Peter Selinger 2001-2013
</metadata>
<g transform="translate(0.000000,512.000000) scale(0.100000,-0.100000)"
fill="#000000" stroke="none">
<path d="M2365 4610 c-715 -52 -1325 -513 -1576 -1193 -57 -154 -91 -324 -104
-514 l-7 -103 75 0 75 0 6 31 c3 17 6 55 6 83 1 117 45 328 99 467 256 660
861 1080 1556 1079 334 -1 633 -92 920 -280 82 -54 145 -108 246 -209 237
-236 375 -484 448 -801 22 -93 36 -200 28 -200 -3 0 -144 100 -313 221 l-307
221 -18 -23 c-11 -13 -31 -41 -46 -62 l-26 -38 24 -17 c13 -9 213 -148 444
-309 l419 -292 84 162 c138 267 373 739 370 742 -14 12 -130 65 -136 61 -4 -2
-79 -149 -167 -325 -88 -177 -163 -321 -166 -321 -4 0 -9 28 -13 63 -17 152
-81 364 -161 532 -320 669 -1023 1078 -1760 1025z"/>
<path d="M581 2008 c-128 -252 -231 -461 -230 -462 14 -13 131 -66 137 -62 4
2 79 149 167 325 88 177 163 321 166 321 4 0 9 -28 13 -62 31 -285 191 -654
384 -888 299 -361 687 -584 1147 -656 134 -21 398 -21 530 1 397 64 733 234
1009 511 323 322 500 717 531 1182 l7 102 -75 0 -74 0 -7 -31 c-3 -17 -6 -57
-6 -88 -1 -109 -38 -291 -90 -438 -236 -662 -862 -1104 -1565 -1103 -334 1
-633 92 -920 280 -153 101 -354 302 -455 455 -118 180 -193 353 -239 555 -22
93 -36 200 -28 200 3 0 144 -100 313 -221 l307 -221 19 23 c40 52 71 100 67
103 -2 2 -195 142 -429 311 -234 169 -429 311 -435 315 -6 5 -100 -169 -244
-452z"/>
</g>
</svg>
