<?xml version="1.0" standalone="no"?>
<!DOCTYPE svg PUBLIC "-//W3C//DTD SVG 20010904//EN"
 "http://www.w3.org/TR/2001/REC-SVG-20010904/DTD/svg10.dtd">
<svg version="1.0" xmlns="http://www.w3.org/2000/svg"
 width="512.000000pt" height="512.000000pt" viewBox="0 0 512.000000 512.000000"
 preserveAspectRatio="xMidYMid meet">
<metadata>
Created by potrace 1.11, written by Peter Selinger 2001-2013
</metadata>
<g transform="translate(0.000000,512.000000) scale(0.100000,-0.100000)"
fill="#000000" stroke="none">
<path d="M4728 3715 l-3 -1104 -1380 1040 -1380 1040 -5 -645 -5 -646 -855
645 -855 644 -3 -1094 c-1 -602 -1 -1588 0 -2190 l3 -1096 855 645 855 645 5
-645 5 -646 1380 1040 1380 1041 3 -1045 2 -1044 75 0 75 0 0 2260 0 2260 -75
0 -75 0 -2 -1105z m-2965 -358 l197 -150 0 -708 0 -708 -772 -582 c-425 -320
-779 -586 -785 -592 -10 -7 -13 370 -13 1882 l0 1892 588 -442 c323 -244 676
-510 785 -592z m1617 79 c663 -500 1212 -915 1221 -925 16 -15 -71 -82 -1217
-946 -679 -511 -1243 -936 -1254 -944 -20 -13 -20 -4 -20 1879 l0 1892 33 -24
c17 -14 574 -433 1237 -932z"/>
</g>
</svg>
