<?xml version="1.0" standalone="no"?>
<!DOCTYPE svg PUBLIC "-//W3C//DTD SVG 20010904//EN"
 "http://www.w3.org/TR/2001/REC-SVG-20010904/DTD/svg10.dtd">
<svg version="1.0" xmlns="http://www.w3.org/2000/svg"
 width="512.000000pt" height="512.000000pt" viewBox="0 0 512.000000 512.000000"
 preserveAspectRatio="xMidYMid meet">
<metadata>
Created by potrace 1.11, written by Peter Selinger 2001-2013
</metadata>
<g transform="translate(0.000000,512.000000) scale(0.100000,-0.100000)"
fill="#000000" stroke="none">
<path d="M1946 4246 l-788 -596 -354 0 -354 0 0 -1085 0 -1085 348 0 347 0
795 -601 795 -601 3 1141 c1 628 1 1654 0 2282 l-3 1141 -789 -596z m662
-2696 l-3 -1011 -677 512 -678 512 0 997 0 997 678 512 677 512 3 -1011 c1
-555 1 -1465 0 -2020z m-1488 1015 l0 -955 -270 0 -270 0 0 955 0 955 270 0
270 0 0 -955z"/>
<path d="M4041 3925 l-43 -65 70 -87 c238 -300 393 -679 431 -1062 53 -514
-101 -1030 -431 -1450 -32 -40 -58 -77 -58 -80 0 -7 31 -37 91 -89 l25 -22 69
88 c314 399 475 859 475 1359 0 441 -124 846 -373 1217 -63 95 -193 256 -205
256 -4 0 -27 -30 -51 -65z"/>
<path d="M3674 3382 l-51 -67 25 -40 c237 -373 293 -789 162 -1195 -44 -132
-119 -273 -238 -440 -12 -16 -8 -25 35 -73 26 -31 53 -56 58 -56 10 0 98 117
153 204 81 129 155 317 195 495 18 80 21 127 22 300 0 179 -3 218 -23 309 -34
151 -83 288 -146 407 -47 89 -131 224 -139 224 -1 0 -25 -30 -53 -68z"/>
<path d="M3235 2990 c-33 -15 -60 -32 -60 -36 0 -5 13 -34 29 -64 121 -231
123 -502 6 -742 l-23 -46 53 -67 c62 -77 55 -81 126 69 68 143 88 234 88 401
1 149 -11 225 -51 333 -34 93 -82 182 -96 181 -6 0 -39 -13 -72 -29z"/>
</g>
</svg>
