<svg viewBox="0 0 32 32" xmlns="http://www.w3.org/2000/svg" fill-rule="evenodd" clip-rule="evenodd" stroke-linejoin="round" stroke-miterlimit="1.414"><path d="M20 25.991a.994.994 0 0 1-1-1 1.016 1.016 0 0 1 1.008-1.008l3.989.013-.014-3.988A1.013 1.013 0 0 1 24.991 19a.993.993 0 0 1 1 1L26 24.991a.983.983 0 0 1-.359.754 1.046 1.046 0 0 1-.65.255L20 25.991zM12 6.009a.994.994 0 0 1 1 1 1.016 1.016 0 0 1-1.008 1.008l-3.989-.013.005 3.988A1.013 1.013 0 0 1 7 13a.993.993 0 0 1-1-1V7.009a.983.983 0 0 1 .359-.754c.181-.157.411-.247.65-.255L12 6.009zm0 19.982a.994.994 0 0 0 1-1 1.016 1.016 0 0 0-1.008-1.008l-3.989.013.005-3.988A1.013 1.013 0 0 0 7 19a.993.993 0 0 0-1 1v4.991a.983.983 0 0 0 .359.754c.181.157.411.247.65.255L12 25.991zm8-19.982a.994.994 0 0 0-1 1 1.016 1.016 0 0 0 1.008 1.008l3.989-.013-.005 3.988A1.013 1.013 0 0 0 25 13a.993.993 0 0 0 1-1V7.009a.983.983 0 0 0-.359-.754 1.046 1.046 0 0 0-.65-.255L20 6.009z" fill-rule="nonzero"/></svg>