<svg viewBox="0 0 32 32" xmlns="http://www.w3.org/2000/svg" fill-rule="evenodd" clip-rule="evenodd" stroke-linejoin="round" stroke-miterlimit="1.414"><path d="M7 12.991a.994.994 0 0 1-1-1 1.016 1.016 0 0 1 1.008-1.008l3.989.013-.014-3.988A1.013 1.013 0 0 1 11.991 6a.993.993 0 0 1 1 1L13 11.991a.983.983 0 0 1-.359.754 1.046 1.046 0 0 1-.65.255L7 12.991zm18 6.018a.994.994 0 0 1 1 1 1.016 1.016 0 0 1-1.008 1.008l-3.989-.013.005 3.988A1.013 1.013 0 0 1 20 26a.993.993 0 0 1-1-1v-4.991a.983.983 0 0 1 .359-.754c.181-.157.411-.247.65-.255l4.991.009zm0-6.018a.994.994 0 0 0 1-1 1.016 1.016 0 0 0-1.008-1.008l-3.989.013.005-3.988A1.013 1.013 0 0 0 20 6a.993.993 0 0 0-1 1v4.991a.983.983 0 0 0 .359.754c.181.157.411.247.65.255L25 12.991zM7 19.009a.994.994 0 0 0-1 1 1.016 1.016 0 0 0 1.008 1.008l3.989-.013-.005 3.988A1.013 1.013 0 0 0 12 26a.993.993 0 0 0 1-1v-4.991a.983.983 0 0 0-.359-.754 1.046 1.046 0 0 0-.65-.255L7 19.009z" fill-rule="nonzero"/></svg>