<svg viewBox="0 0 32 32" xmlns="http://www.w3.org/2000/svg" fill-rule="evenodd" clip-rule="evenodd" stroke-linejoin="round" stroke-miterlimit="1.414"><path d="M7.317 6.302a.996.996 0 0 0-1.414 0 1.017 1.017 0 0 0 0 1.426L14.096 16l-8.193 8.272a1.013 1.013 0 0 0 0 1.426.994.994 0 0 0 1.414 0l8.899-8.985a.98.98 0 0 0 .279-.787 1.05 1.05 0 0 0-.279-.64L7.317 6.302z" fill-rule="nonzero"/><path d="M17.207 6.302a.996.996 0 0 0-1.414 0 1.017 1.017 0 0 0 0 1.426L23.986 16l-8.193 8.272a1.013 1.013 0 0 0 0 1.426.994.994 0 0 0 1.414 0l8.899-8.985a.98.98 0 0 0 .279-.787 1.05 1.05 0 0 0-.279-.64l-8.899-8.984z" fill-rule="nonzero"/></svg>