<svg viewBox="0 0 32 32" xmlns="http://www.w3.org/2000/svg" fill-rule="evenodd" clip-rule="evenodd" stroke-linejoin="round" stroke-miterlimit="1.414"><path d="M6.918 13.866a.931.931 0 0 1 .564.232 69.03 69.03 0 0 1 2.494 2.495.915.915 0 0 1 0 1.215.92.92 0 0 1-.931.262.947.947 0 0 1-.382-.226l-.817-.817c.242 1.958 1.23 3.792 2.705 5.098a8.238 8.238 0 0 0 2.662 1.581 8.229 8.229 0 0 0 5.902-.139 8.207 8.207 0 0 0 3.84-3.262c.108-.174.205-.355.306-.534.024-.039.024-.039.051-.077a.942.942 0 0 1 .379-.296.916.916 0 0 1 1.257.828.947.947 0 0 1-.085.392c-.046.092-.047.091-.103.195a10.01 10.01 0 0 1-6.067 4.816 10.083 10.083 0 0 1-6.769-.482 10.12 10.12 0 0 1-5.006-4.889 9.976 9.976 0 0 1-.904-3.296l-.004-.044c-.319.318-.63.645-.957.955-.035.03-.035.03-.071.058a.957.957 0 0 1-.364.159.913.913 0 0 1-.995-.508.917.917 0 0 1-.047-.64.943.943 0 0 1 .196-.349 68.256 68.256 0 0 1 2.495-2.495.967.967 0 0 1 .146-.108.936.936 0 0 1 .418-.124h.087zm9.189-7.92a9.986 9.986 0 0 1 3.378.624c.765.285 1.494.664 2.167 1.125a10.156 10.156 0 0 1 3.467 4.114 9.966 9.966 0 0 1 .845 3.078l.011.11c.306-.306.606-.62.92-.919l.073-.059a.96.96 0 0 1 .463-.176.941.941 0 0 1 .935.535.934.934 0 0 1-.153 1.016c-.801.843-1.644 1.645-2.466 2.467a.942.942 0 0 1-1.005.202 1.003 1.003 0 0 1-.275-.172 69.992 69.992 0 0 1-2.497-2.497.922.922 0 0 1-.153-1.016.94.94 0 0 1 1.11-.501.966.966 0 0 1 .391.231l.765.766a8.122 8.122 0 0 0-.638-2.228 8.262 8.262 0 0 0-2.967-3.487 8.153 8.153 0 0 0-2.395-1.077c-.913-.243-1.867-.324-2.809-.243a8.19 8.19 0 0 0-2.792.753 8.186 8.186 0 0 0-3.525 3.207c-.081.135-.155.275-.233.413-.025.04-.025.04-.052.079a.968.968 0 0 1-.349.286.941.941 0 0 1-1.199-.364.95.95 0 0 1-.107-.695c.033-.135.1-.252.166-.373A10.08 10.08 0 0 1 8.47 9.32a10.015 10.015 0 0 1 7.337-3.374h.3z"/></svg>