<svg viewBox="0 0 32 32" xmlns="http://www.w3.org/2000/svg" fill-rule="evenodd" clip-rule="evenodd" stroke-linejoin="round" stroke-miterlimit="1.414"><path d="M7.156 8.918a9.952 9.952 0 0 1 7.082-2.934 9.948 9.948 0 0 1 7.081 2.934A9.952 9.952 0 0 1 24.253 16v1.524l2.529-2.529a.591.591 0 0 1 .409-.166c.324 0 .59.266.59.59 0 .152-.06.299-.166.409l-3.535 3.535a.587.587 0 0 1-.834 0l-3.535-3.535a.59.59 0 0 1 .833-.833l2.529 2.529V16c0-4.874-3.964-8.837-8.838-8.837-4.873 0-8.837 3.963-8.837 8.837s3.964 8.837 8.837 8.837c.323 0 .589.266.589.59a.592.592 0 0 1-.589.589 9.95 9.95 0 0 1-7.082-2.934A9.956 9.956 0 0 1 4.219 16a9.948 9.948 0 0 1 2.934-7.082h.003z" fill-rule="nonzero" stroke="#000" stroke-width=".3"/></svg>