<svg viewBox="0 0 32 32" xmlns="http://www.w3.org/2000/svg" fill-rule="evenodd" clip-rule="evenodd" stroke-linejoin="round" stroke-miterlimit="1.414"><path d="M6.652 13.924a.858.858 0 0 1 .514.212 70.39 70.39 0 0 1 2.563 2.563.858.858 0 0 1 .179.318c.03.102.04.209.03.314a.808.808 0 0 1-.209.475.836.836 0 0 1-.848.238.85.85 0 0 1-.348-.206l-1.06-1.06a8.48 8.48 0 0 0 1.183 3.62 8.642 8.642 0 0 0 1.599 1.945 8.543 8.543 0 0 0 6.043 2.214 8.589 8.589 0 0 0 2.974-.641 8.582 8.582 0 0 0 4.008-3.405c.112-.181.212-.368.317-.553.022-.036.022-.035.046-.07a.84.84 0 0 1 .615-.331.832.832 0 0 1 .812.507.84.84 0 0 1-.014.666c-.045.09-.046.088-.103.194a10.2 10.2 0 0 1-9.587 5.271 10.205 10.205 0 0 1-3.504-.851 10.318 10.318 0 0 1-5.156-5.096 10.1 10.1 0 0 1-.892-3.495l-.003-.035c-.382.383-.756.775-1.149 1.148-.031.027-.031.027-.064.052a.862.862 0 0 1-.331.145.834.834 0 0 1-.98-.732.834.834 0 0 1 .03-.314.872.872 0 0 1 .179-.318 70.39 70.39 0 0 1 2.563-2.563.862.862 0 0 1 .514-.212h.079zm9.476-8.138a10.179 10.179 0 0 1 3.437.636 10.15 10.15 0 0 1 2.306 1.216 10.319 10.319 0 0 1 3.523 4.333 10.148 10.148 0 0 1 .794 3.276l.003.035c.382-.383.756-.775 1.149-1.148.031-.027.031-.027.064-.052a.849.849 0 0 1 .41-.156.835.835 0 0 1 .829.474.834.834 0 0 1 .043.583.858.858 0 0 1-.179.318 65.256 65.256 0 0 1-2.564 2.564.84.84 0 0 1-.863.152.873.873 0 0 1-.244-.153 70.39 70.39 0 0 1-2.563-2.563.858.858 0 0 1-.179-.318c-.03-.102-.04-.209-.03-.314a.808.808 0 0 1 .209-.475.833.833 0 0 1 .848-.238.854.854 0 0 1 .347.206l1.06 1.06a8.482 8.482 0 0 0-1.184-3.62 8.595 8.595 0 0 0-4.453-3.662 8.584 8.584 0 0 0-6.162.144 8.582 8.582 0 0 0-4.009 3.405c-.112.181-.212.368-.316.553-.022.036-.022.035-.046.07a.832.832 0 0 1-1.372-.069.81.81 0 0 1-.107-.297.816.816 0 0 1 .012-.319c.031-.127.095-.237.158-.351a10.244 10.244 0 0 1 1.309-1.857 10.173 10.173 0 0 1 7.465-3.432l.305-.001z"/></svg>