<svg version="1" xmlns="http://www.w3.org/2000/svg" width="682.667" height="682.667" viewBox="0 0 512.000000 512.000000"><path d="M236.5 51C165 56.2 104 102.3 78.9 170.3c-5.7 15.4-9.1 32.4-10.4 51.4l-.7 10.3h15l.6-3.1c.3-1.7.6-5.5.6-8.3.1-11.7 4.5-32.8 9.9-46.7 25.6-66 86.1-108 155.6-107.9 33.4.1 63.3 9.2 92 28 8.2 5.4 14.5 10.8 24.6 20.9 23.7 23.6 37.5 48.4 44.8 80.1 2.2 9.3 3.6 20 2.8 20-.3 0-14.4-10-31.3-22.1l-30.7-22.1-1.8 2.3c-1.1 1.3-3.1 4.1-4.6 6.2l-2.6 3.8 2.4 1.7c1.3.9 21.3 14.8 44.4 30.9l41.9 29.2 8.4-16.2c13.8-26.7 37.3-73.9 37-74.2-1.4-1.2-13-6.5-13.6-6.1-.4.2-7.9 14.9-16.7 32.5-8.8 17.7-16.3 32.1-16.6 32.1-.4 0-.9-2.8-1.3-6.3-1.7-15.2-8.1-36.4-16.1-53.2-32-66.9-102.3-107.8-176-102.5zM58.1 311.2c-12.8 25.2-23.1 46.1-23 46.2 1.4 1.3 13.1 6.6 13.7 6.2.4-.2 7.9-14.9 16.7-32.5 8.8-17.7 16.3-32.1 16.6-32.1.4 0 .9 2.8 1.3 6.2 3.1 28.5 19.1 65.4 38.4 88.8 29.9 36.1 68.7 58.4 114.7 65.6 13.4 2.1 39.8 2.1 53-.1 39.7-6.4 73.3-23.4 100.9-51.1 32.3-32.2 50-71.7 53.1-118.2l.7-10.2h-14.9l-.7 3.1c-.3 1.7-.6 5.7-.6 8.8-.1 10.9-3.8 29.1-9 43.8-23.6 66.2-86.2 110.4-156.5 110.3-33.4-.1-63.3-9.2-92-28-15.3-10.1-35.4-30.2-45.5-45.5-11.8-18-19.3-35.3-23.9-55.5-2.2-9.3-3.6-20-2.8-20 .3 0 14.4 10 31.3 22.1l30.7 22.1 1.9-2.3c4-5.2 7.1-10 6.7-10.3-.2-.2-19.5-14.2-42.9-31.1-23.4-16.9-42.9-31.1-43.5-31.5-.6-.5-10 16.9-24.4 45.2z"/></svg>