<svg xmlns="http://www.w3.org/2000/svg" viewBox="0 0 490.75 490.75"><path d="M472 73.05l-67.6-67.8c-7-7-18.4-7-25.5 0-7 7-7 18.4 0 25.5l37 37h-72.3c-85.3 0-154.7 69.4-154.7 154.7v45.8c0 65.5-53.3 118.7-118.7 118.7H31.4c-9.9 0-18 8.1-18 18s8 18 18 18h38.8c85.3 0 154.7-69.4 154.7-154.7v-45.8c0-65.5 53.3-118.7 118.7-118.7h72.3l-37 37c-7 7-7 18.4 0 25.5 3.5 3.5 8.1 5.3 12.7 5.3s9.2-1.8 12.7-5.3l67.7-67.7c7-7 7-18.4 0-25.5zM181.1 114.65c-29.3-30.3-68.7-46.9-110.9-46.9H31.4c-9.9 0-18 8.1-18 18s8 18 18 18h38.8c32.3 0 62.6 12.8 85.1 36 3.5 3.6 8.2 5.5 12.9 5.5 4.5 0 9-1.7 12.5-5.1 7.1-6.9 7.3-18.3.4-25.5zM472.1 392.25l-67.7-67.7c-7-7-18.4-7-25.5 0-7 7-7 18.4 0 25.5l37 37h-72.3c-32.4 0-62.6-12.8-85.1-36-6.9-7.1-18.3-7.3-25.5-.4-7.1 6.9-7.3 18.3-.4 25.5 29.4 30.2 68.8 46.9 111 46.9h72.3l-37 37c-7 7-7 18.3.1 25.4 3.5 3.5 8.1 5.3 12.7 5.3s9.2-1.8 12.7-5.3l67.7-67.7c7-7 7-18.4 0-25.5z"/></svg>