<svg version="1" xmlns="http://www.w3.org/2000/svg" width="682.667" height="682.667" viewBox="0 0 512.000000 512.000000"><path d="M472.8 140.5l-.3 110.4-138-104-138-104-.5 64.5-.5 64.6-85.5-64.5-85.5-64.4-.3 109.4c-.1 60.2-.1 158.8 0 219l.3 109.6 85.5-64.5 85.5-64.5.5 64.5.5 64.6 138-104 138-104.1.3 104.5.2 104.4h15V30h-15l-.2 110.5zm-296.5 35.8l19.7 15v141.6l-77.2 58.2c-42.5 32-77.9 58.6-78.5 59.2-1 .7-1.3-37-1.3-188.2V72.9l58.8 44.2c32.3 24.4 67.6 51 78.5 59.2zm161.7-7.9c66.3 50 121.2 91.5 122.1 92.5 1.6 1.5-7.1 8.2-121.7 94.6-67.9 51.1-124.3 93.6-125.4 94.4-2 1.3-2 .4-2-187.9V72.8l3.3 2.4c1.7 1.4 57.4 43.3 123.7 93.2z"/></svg>