<?xml version="1.0" standalone="no"?>
<!DOCTYPE svg PUBLIC "-//W3C//DTD SVG 20010904//EN"
 "http://www.w3.org/TR/2001/REC-SVG-20010904/DTD/svg10.dtd">
<svg version="1.0" xmlns="http://www.w3.org/2000/svg"
 width="320.000000pt" height="128.000000pt" viewBox="0 0 320.000000 128.000000"
 preserveAspectRatio="xMidYMid meet" style="background-color:#fff">
<metadata>
Created by potrace 1.11, written by Peter Selinger 2001-2013
</metadata>
<g transform="translate(0.000000,128.000000) scale(0.100000,-0.100000)"
fill="#02C68E" stroke="none">
<path d="M0 640 l0 -640 1600 0 1600 0 0 640 0 640 -1600 0 -1600 0 0 -640z
m2908 153 c89 -67 95 -228 11 -309 -28 -27 -36 -29 -109 -29 -76 0 -80 1 -115
35 -90 87 -67 267 40 317 43 19 138 12 173 -14z m-2578 -123 l0 -140 85 0 85
0 0 -35 0 -35 -125 0 -125 0 0 175 0 175 40 0 40 0 0 -140z m290 -35 l0 -175
-40 0 -40 0 0 175 0 175 40 0 40 0 0 -175z m195 69 l60 -106 3 106 3 106 39 0
40 0 0 -176 0 -175 -42 3 -42 3 -61 105 -60 104 -3 -107 -3 -107 -39 0 -40 0
0 175 0 175 43 0 42 0 60 -106z m475 71 l0 -35 -95 0 -95 0 0 -30 0 -30 85 0
85 0 0 -35 0 -35 -85 0 -85 0 0 -40 0 -39 98 -3 97 -3 3 -32 3 -33 -140 0
-141 0 0 175 0 175 135 0 135 0 0 -35z m427 15 c51 -31 62 -106 22 -148 -15
-17 -16 -22 -4 -32 8 -6 17 -33 20 -58 3 -26 8 -57 11 -69 4 -21 1 -23 -40
-23 l-45 0 -7 58 c-4 31 -12 60 -18 64 -6 4 -32 8 -58 8 l-48 0 0 -65 0 -65
-40 0 -40 0 0 175 0 175 108 0 c89 0 112 -3 139 -20z m354 -150 c32 -91 59
-168 59 -172 0 -5 -20 -8 -44 -8 -42 0 -44 1 -50 35 l-7 35 -63 0 c-63 0 -63
0 -72 -32 -9 -30 -14 -33 -53 -36 -33 -2 -42 0 -39 10 3 7 31 86 63 176 l58
163 45 -3 44 -3 59 -165z m345 140 c14 -14 33 -39 40 -57 21 -48 18 -136 -6
-186 -30 -64 -59 -77 -179 -77 l-101 0 0 176 0 176 109 -4 c100 -3 112 -5 137
-28z m174 -145 l0 -175 -40 0 -40 0 0 175 0 175 40 0 40 0 0 -175z"/>
<path d="M2767 739 c-24 -14 -47 -69 -47 -112 0 -19 10 -49 23 -68 19 -28 30
-35 64 -37 34 -3 44 1 61 22 45 58 35 164 -18 191 -34 18 -58 19 -83 4z"/>
<path d="M2250 629 l0 -112 46 6 c59 6 85 32 91 90 11 92 -13 127 -88 127
l-49 0 0 -111z"/>
</g>
</svg>
