<?xml version="1.0" standalone="no"?>
<!DOCTYPE svg PUBLIC "-//W3C//DTD SVG 20010904//EN"
 "http://www.w3.org/TR/2001/REC-SVG-20010904/DTD/svg10.dtd">
<svg version="1.0" xmlns="http://www.w3.org/2000/svg"
 width="64.000000pt" height="64.000000pt" viewBox="0 0 64.000000 64.000000"
 preserveAspectRatio="xMidYMid meet">
<metadata>
Created by potrace 1.11, written by Peter Selinger 2001-2013
</metadata>
<g transform="translate(0.000000,64.000000) scale(0.100000,-0.100000)"
fill="#000000" stroke="none">
<path d="M56 624 c-14 -13 -16 -55 -16 -304 0 -338 -6 -320 100 -320 106 0
100 -18 100 320 0 338 6 320 -100 320 -49 0 -73 -4 -84 -16z"/>
<path d="M412 628 c-17 -17 -17 -599 0 -616 7 -7 41 -12 84 -12 108 0 104 -13
104 320 0 333 4 320 -104 320 -43 0 -77 -5 -84 -12z"/>
</g>
</svg>
