<?xml version="1.0" standalone="no"?>
<!DOCTYPE svg PUBLIC "-//W3C//DTD SVG 20010904//EN"
 "http://www.w3.org/TR/2001/REC-SVG-20010904/DTD/svg10.dtd">
<svg version="1.0" xmlns="http://www.w3.org/2000/svg"
 width="64.000000pt" height="64.000000pt" viewBox="0 0 64.000000 64.000000"
 preserveAspectRatio="xMidYMid meet">
<metadata>
Created by potrace 1.11, written by Peter Selinger 2001-2013
</metadata>
<g transform="translate(0.000000,64.000000) scale(0.100000,-0.100000)"
fill="#000000" stroke="none">
<path d="M477 633 c-4 -3 -7 -19 -7 -35 0 -22 -5 -28 -21 -28 -47 0 -88 -32
-134 -103 -35 -55 -45 -65 -45 -46 -1 35 -65 118 -105 135 -49 20 -118 18
-146 -5 -20 -16 -22 -23 -14 -47 10 -27 15 -29 69 -34 57 -5 61 -7 91 -50 28
-38 37 -45 64 -43 31 1 31 0 18 -20 -7 -12 -33 -54 -56 -94 -24 -40 -48 -76
-55 -82 -6 -5 -36 -11 -66 -13 -50 -3 -55 -5 -65 -32 -29 -83 150 -91 214 -10
13 16 65 100 117 186 71 117 100 158 115 158 15 0 19 -7 19 -34 0 -19 4 -37 9
-41 11 -6 164 113 159 125 -3 10 -140 120 -149 120 -3 0 -9 -3 -12 -7z"/>
<path d="M477 243 c-4 -3 -7 -21 -7 -40 0 -46 -31 -45 -60 2 -23 37 -63 48
-88 23 -42 -42 51 -158 126 -158 16 0 21 -8 24 -32 2 -18 9 -33 15 -33 15 0
153 106 153 117 0 7 -146 128 -154 128 -1 0 -6 -3 -9 -7z"/>
</g>
</svg>
