<?xml version="1.0" standalone="no"?>
<!DOCTYPE svg PUBLIC "-//W3C//DTD SVG 20010904//EN"
 "http://www.w3.org/TR/2001/REC-SVG-20010904/DTD/svg10.dtd">
<svg version="1.0" xmlns="http://www.w3.org/2000/svg"
 width="350.000000pt" height="350.000000pt" viewBox="0 0 350.000000 350.000000"
 preserveAspectRatio="xMidYMid meet">
<metadata>
Created by potrace 1.11, written by Peter Selinger 2001-2013
</metadata>
<g transform="translate(0.000000,350.000000) scale(0.100000,-0.100000)"
fill="#fff" stroke="none">
<path d="M1225 3416 c-541 -80 -976 -458 -1124 -976 -44 -155 -54 -248 -48
-428 8 -212 37 -340 123 -530 125 -274 389 -535 669 -660 206 -93 391 -128
622 -119 218 8 374 48 559 143 l102 51 398 -398 c261 -261 414 -407 445 -424
67 -36 139 -48 213 -34 79 14 129 41 187 100 87 89 113 223 68 346 -20 54 -48
85 -430 468 -225 226 -409 416 -409 422 0 6 17 47 39 90 142 287 176 619 96
933 -131 511 -548 904 -1066 1005 -114 22 -332 28 -444 11z m348 -411 c358
-62 654 -326 756 -673 149 -508 -142 -1035 -655 -1188 -107 -32 -296 -43 -413
-25 -309 48 -584 258 -717 545 -65 142 -79 211 -79 401 0 150 3 179 24 245 32
105 72 196 114 262 210 327 594 499 970 433z"/>
</g>
</svg>
