<?xml version="1.0" standalone="no"?>
<!DOCTYPE svg PUBLIC "-//W3C//DTD SVG 20010904//EN"
 "http://www.w3.org/TR/2001/REC-SVG-20010904/DTD/svg10.dtd">
<svg version="1.0" xmlns="http://www.w3.org/2000/svg"
 width="64.000000pt" height="64.000000pt" viewBox="0 0 64.000000 64.000000"
 preserveAspectRatio="xMidYMid meet">
<metadata>
Created by potrace 1.11, written by Peter Selinger 2001-2013
</metadata>
<g transform="translate(0.000000,64.000000) scale(0.100000,-0.100000)"
fill="#000000" stroke="none">
<path d="M418 629 c-15 -8 -18 -26 -18 -114 0 -58 -3 -105 -7 -105 -5 0 -70
50 -146 110 -76 61 -146 110 -156 110 -10 0 -25 -8 -34 -18 -15 -16 -17 -52
-17 -291 0 -169 4 -280 10 -292 22 -41 59 -24 202 91 76 61 140 110 143 110 3
0 5 -46 5 -103 0 -67 4 -107 12 -115 19 -19 153 -16 172 4 14 13 16 55 16 300
0 336 4 324 -102 324 -35 0 -71 -5 -80 -11z"/>
</g>
</svg>
